<mxfile host="app.diagrams.net" modified="2022-01-10T06:50:19.753Z" agent="5.0 (Windows NT 10.0; Win64; x64) AppleWebKit/537.36 (KHTML, like Gecko) Chrome/97.0.4692.71 Safari/537.36 Edg/97.0.1072.55" etag="vdr7bD2P-tUAAqHRRTI_" version="16.2.2" type="github">
  <diagram id="Jli7zH1tGY8wEztfFKBg" name="Page-1">
    <mxGraphModel dx="3685" dy="2303" grid="1" gridSize="10" guides="1" tooltips="1" connect="1" arrows="1" fold="1" page="1" pageScale="1" pageWidth="827" pageHeight="1169" math="0" shadow="0">
      <root>
        <mxCell id="0" />
        <mxCell id="1" parent="0" />
        <mxCell id="pUQb4mrd04jTsInn6m61-109" style="edgeStyle=orthogonalEdgeStyle;rounded=0;orthogonalLoop=1;jettySize=auto;html=1;exitX=1;exitY=0.75;exitDx=0;exitDy=0;entryX=0;entryY=0.5;entryDx=0;entryDy=0;" parent="1" source="pUQb4mrd04jTsInn6m61-1" target="pUQb4mrd04jTsInn6m61-106" edge="1">
          <mxGeometry relative="1" as="geometry">
            <Array as="points">
              <mxPoint x="-440" y="430" />
              <mxPoint x="-80" y="430" />
              <mxPoint x="-80" y="525" />
            </Array>
          </mxGeometry>
        </mxCell>
        <mxCell id="pUQb4mrd04jTsInn6m61-123" style="edgeStyle=orthogonalEdgeStyle;rounded=0;orthogonalLoop=1;jettySize=auto;html=1;exitX=0.5;exitY=0;exitDx=0;exitDy=0;entryX=0;entryY=0.5;entryDx=0;entryDy=0;" parent="1" source="pUQb4mrd04jTsInn6m61-1" target="pUQb4mrd04jTsInn6m61-122" edge="1">
          <mxGeometry relative="1" as="geometry" />
        </mxCell>
        <mxCell id="pUQb4mrd04jTsInn6m61-128" style="edgeStyle=orthogonalEdgeStyle;rounded=0;orthogonalLoop=1;jettySize=auto;html=1;entryX=0;entryY=0.5;entryDx=0;entryDy=0;" parent="1" source="pUQb4mrd04jTsInn6m61-1" target="pUQb4mrd04jTsInn6m61-126" edge="1">
          <mxGeometry relative="1" as="geometry">
            <mxPoint x="-400.00000000000045" y="569.9999999999995" as="targetPoint" />
          </mxGeometry>
        </mxCell>
        <mxCell id="pUQb4mrd04jTsInn6m61-143" style="edgeStyle=orthogonalEdgeStyle;rounded=0;orthogonalLoop=1;jettySize=auto;html=1;entryX=1;entryY=0.5;entryDx=0;entryDy=0;" parent="1" source="pUQb4mrd04jTsInn6m61-1" target="pUQb4mrd04jTsInn6m61-66" edge="1">
          <mxGeometry relative="1" as="geometry">
            <Array as="points">
              <mxPoint x="-600" y="430" />
              <mxPoint x="-600" y="320" />
            </Array>
          </mxGeometry>
        </mxCell>
        <mxCell id="pUQb4mrd04jTsInn6m61-145" style="edgeStyle=orthogonalEdgeStyle;rounded=0;orthogonalLoop=1;jettySize=auto;html=1;entryX=1;entryY=0.5;entryDx=0;entryDy=0;" parent="1" source="pUQb4mrd04jTsInn6m61-1" target="pUQb4mrd04jTsInn6m61-64" edge="1">
          <mxGeometry relative="1" as="geometry">
            <Array as="points">
              <mxPoint x="-600" y="430" />
              <mxPoint x="-600" y="160" />
            </Array>
          </mxGeometry>
        </mxCell>
        <mxCell id="pUQb4mrd04jTsInn6m61-1" value="雅棉开票系统" style="rounded=0;whiteSpace=wrap;html=1;strokeWidth=2;" parent="1" vertex="1">
          <mxGeometry x="-560" y="400" width="120" height="60" as="geometry" />
        </mxCell>
        <mxCell id="pUQb4mrd04jTsInn6m61-146" style="edgeStyle=orthogonalEdgeStyle;rounded=0;orthogonalLoop=1;jettySize=auto;html=1;entryX=0.5;entryY=1;entryDx=0;entryDy=0;" parent="1" source="pUQb4mrd04jTsInn6m61-2" target="pUQb4mrd04jTsInn6m61-56" edge="1">
          <mxGeometry relative="1" as="geometry" />
        </mxCell>
        <mxCell id="pUQb4mrd04jTsInn6m61-2" value="OMS系统" style="rounded=0;whiteSpace=wrap;html=1;strokeWidth=2;" parent="1" vertex="1">
          <mxGeometry x="-1050" y="400" width="120" height="60" as="geometry" />
        </mxCell>
        <mxCell id="pUQb4mrd04jTsInn6m61-88" style="edgeStyle=orthogonalEdgeStyle;rounded=0;orthogonalLoop=1;jettySize=auto;html=1;exitX=0.5;exitY=1;exitDx=0;exitDy=0;entryX=1;entryY=0.5;entryDx=0;entryDy=0;" parent="1" source="pUQb4mrd04jTsInn6m61-7" target="pUQb4mrd04jTsInn6m61-98" edge="1">
          <mxGeometry relative="1" as="geometry">
            <mxPoint x="210" y="699.9999999999995" as="targetPoint" />
            <Array as="points">
              <mxPoint x="600" y="700" />
            </Array>
          </mxGeometry>
        </mxCell>
        <mxCell id="pUQb4mrd04jTsInn6m61-7" value="诺诺开票系统" style="rounded=0;whiteSpace=wrap;html=1;strokeWidth=2;" parent="1" vertex="1">
          <mxGeometry x="540" y="400" width="120" height="60" as="geometry" />
        </mxCell>
        <mxCell id="pUQb4mrd04jTsInn6m61-133" style="edgeStyle=orthogonalEdgeStyle;rounded=0;orthogonalLoop=1;jettySize=auto;html=1;entryX=0.5;entryY=0;entryDx=0;entryDy=0;" parent="1" target="pUQb4mrd04jTsInn6m61-112" edge="1">
          <mxGeometry relative="1" as="geometry">
            <mxPoint x="290.00000000000045" y="-240" as="sourcePoint" />
            <mxPoint x="540" y="-110" as="targetPoint" />
            <Array as="points">
              <mxPoint x="410" y="-240" />
              <mxPoint x="410" y="-110" />
              <mxPoint x="750" y="-110" />
            </Array>
          </mxGeometry>
        </mxCell>
        <mxCell id="pUQb4mrd04jTsInn6m61-15" value="" style="shape=flexArrow;endArrow=classic;startArrow=classic;html=1;rounded=0;exitX=1;exitY=0.5;exitDx=0;exitDy=0;" parent="1" source="pUQb4mrd04jTsInn6m61-1" target="pUQb4mrd04jTsInn6m61-7" edge="1">
          <mxGeometry width="100" height="100" relative="1" as="geometry">
            <mxPoint x="300" y="460" as="sourcePoint" />
            <mxPoint x="400" y="360" as="targetPoint" />
            <Array as="points" />
          </mxGeometry>
        </mxCell>
        <mxCell id="pUQb4mrd04jTsInn6m61-17" value="" style="shape=flexArrow;endArrow=classic;html=1;rounded=0;exitX=1;exitY=0.5;exitDx=0;exitDy=0;" parent="1" source="pUQb4mrd04jTsInn6m61-2" edge="1">
          <mxGeometry width="50" height="50" relative="1" as="geometry">
            <mxPoint x="-310" y="360" as="sourcePoint" />
            <mxPoint x="-560" y="430" as="targetPoint" />
          </mxGeometry>
        </mxCell>
        <mxCell id="Sm_hAgKdC-RfSFga7j6l-14" style="edgeStyle=orthogonalEdgeStyle;rounded=0;orthogonalLoop=1;jettySize=auto;html=1;entryX=0;entryY=0.5;entryDx=0;entryDy=0;" edge="1" parent="1" source="pUQb4mrd04jTsInn6m61-25" target="Sm_hAgKdC-RfSFga7j6l-13">
          <mxGeometry relative="1" as="geometry" />
        </mxCell>
        <mxCell id="pUQb4mrd04jTsInn6m61-25" value="填写税率和税收分类编码" style="rounded=0;whiteSpace=wrap;html=1;strokeWidth=2;" parent="1" vertex="1">
          <mxGeometry y="20" width="110" height="40" as="geometry" />
        </mxCell>
        <mxCell id="pUQb4mrd04jTsInn6m61-141" style="edgeStyle=orthogonalEdgeStyle;rounded=0;orthogonalLoop=1;jettySize=auto;html=1;" parent="1" source="pUQb4mrd04jTsInn6m61-47" target="pUQb4mrd04jTsInn6m61-7" edge="1">
          <mxGeometry relative="1" as="geometry" />
        </mxCell>
        <mxCell id="pUQb4mrd04jTsInn6m61-47" value="待开发票信息" style="rounded=0;whiteSpace=wrap;html=1;strokeWidth=2;" parent="1" vertex="1">
          <mxGeometry x="540" y="240" width="120" height="40" as="geometry" />
        </mxCell>
        <mxCell id="pUQb4mrd04jTsInn6m61-65" style="edgeStyle=orthogonalEdgeStyle;rounded=0;orthogonalLoop=1;jettySize=auto;html=1;exitX=1;exitY=0.5;exitDx=0;exitDy=0;entryX=0;entryY=0.5;entryDx=0;entryDy=0;" parent="1" source="pUQb4mrd04jTsInn6m61-56" target="pUQb4mrd04jTsInn6m61-64" edge="1">
          <mxGeometry relative="1" as="geometry">
            <Array as="points">
              <mxPoint x="-910" y="220" />
              <mxPoint x="-910" y="160" />
            </Array>
          </mxGeometry>
        </mxCell>
        <mxCell id="pUQb4mrd04jTsInn6m61-68" style="edgeStyle=orthogonalEdgeStyle;rounded=0;orthogonalLoop=1;jettySize=auto;html=1;entryX=0;entryY=0.5;entryDx=0;entryDy=0;" parent="1" source="pUQb4mrd04jTsInn6m61-56" target="pUQb4mrd04jTsInn6m61-66" edge="1">
          <mxGeometry relative="1" as="geometry">
            <Array as="points">
              <mxPoint x="-910" y="220" />
              <mxPoint x="-910" y="320" />
            </Array>
          </mxGeometry>
        </mxCell>
        <mxCell id="pUQb4mrd04jTsInn6m61-56" value="订单数据" style="rounded=0;whiteSpace=wrap;html=1;strokeWidth=2;" parent="1" vertex="1">
          <mxGeometry x="-1050" y="200" width="120" height="40" as="geometry" />
        </mxCell>
        <mxCell id="pUQb4mrd04jTsInn6m61-64" value="数据拉取" style="rounded=0;whiteSpace=wrap;html=1;strokeWidth=2;" parent="1" vertex="1">
          <mxGeometry x="-880" y="140" width="120" height="40" as="geometry" />
        </mxCell>
        <mxCell id="pUQb4mrd04jTsInn6m61-66" value="数据更新" style="rounded=0;whiteSpace=wrap;html=1;strokeWidth=2;" parent="1" vertex="1">
          <mxGeometry x="-880" y="300" width="120" height="40" as="geometry" />
        </mxCell>
        <mxCell id="pUQb4mrd04jTsInn6m61-83" style="edgeStyle=orthogonalEdgeStyle;rounded=0;orthogonalLoop=1;jettySize=auto;html=1;exitX=1;exitY=0.5;exitDx=0;exitDy=0;entryX=0;entryY=0.5;entryDx=0;entryDy=0;" parent="1" source="pUQb4mrd04jTsInn6m61-78" edge="1">
          <mxGeometry relative="1" as="geometry">
            <mxPoint x="190.00000000000045" y="-240" as="targetPoint" />
          </mxGeometry>
        </mxCell>
        <mxCell id="pUQb4mrd04jTsInn6m61-78" value="自动推送" style="rounded=0;whiteSpace=wrap;html=1;strokeWidth=2;" parent="1" vertex="1">
          <mxGeometry x="10" y="-260" width="120" height="40" as="geometry" />
        </mxCell>
        <mxCell id="pUQb4mrd04jTsInn6m61-93" style="edgeStyle=orthogonalEdgeStyle;rounded=0;orthogonalLoop=1;jettySize=auto;html=1;entryX=0;entryY=0.5;entryDx=0;entryDy=0;" parent="1" target="pUQb4mrd04jTsInn6m61-25" edge="1">
          <mxGeometry relative="1" as="geometry">
            <mxPoint x="-39.999999999999545" y="40" as="sourcePoint" />
          </mxGeometry>
        </mxCell>
        <mxCell id="pUQb4mrd04jTsInn6m61-96" style="edgeStyle=orthogonalEdgeStyle;rounded=0;orthogonalLoop=1;jettySize=auto;html=1;entryX=0;entryY=0.5;entryDx=0;entryDy=0;" parent="1" source="pUQb4mrd04jTsInn6m61-94" target="pUQb4mrd04jTsInn6m61-78" edge="1">
          <mxGeometry relative="1" as="geometry" />
        </mxCell>
        <mxCell id="pUQb4mrd04jTsInn6m61-94" value="推送条件" style="rounded=0;whiteSpace=wrap;html=1;strokeWidth=2;" parent="1" vertex="1">
          <mxGeometry x="-160" y="-260" width="120" height="40" as="geometry" />
        </mxCell>
        <mxCell id="pUQb4mrd04jTsInn6m61-107" style="edgeStyle=orthogonalEdgeStyle;rounded=0;orthogonalLoop=1;jettySize=auto;html=1;exitX=0.5;exitY=0;exitDx=0;exitDy=0;entryX=0;entryY=0.5;entryDx=0;entryDy=0;" parent="1" source="pUQb4mrd04jTsInn6m61-98" target="pUQb4mrd04jTsInn6m61-106" edge="1">
          <mxGeometry relative="1" as="geometry" />
        </mxCell>
        <mxCell id="pUQb4mrd04jTsInn6m61-147" style="edgeStyle=orthogonalEdgeStyle;rounded=0;orthogonalLoop=1;jettySize=auto;html=1;entryX=1;entryY=0.5;entryDx=0;entryDy=0;" parent="1" source="pUQb4mrd04jTsInn6m61-98" target="pUQb4mrd04jTsInn6m61-126" edge="1">
          <mxGeometry relative="1" as="geometry" />
        </mxCell>
        <mxCell id="pUQb4mrd04jTsInn6m61-98" value="开票结果" style="rhombus;whiteSpace=wrap;html=1;strokeWidth=2;" parent="1" vertex="1">
          <mxGeometry x="-120" y="660" width="80" height="80" as="geometry" />
        </mxCell>
        <mxCell id="pUQb4mrd04jTsInn6m61-99" value="&lt;b&gt;&lt;font style=&quot;font-size: 16px&quot;&gt;true&lt;/font&gt;&lt;/b&gt;" style="rounded=0;whiteSpace=wrap;html=1;strokeWidth=2;strokeColor=none;gradientColor=#ffffff;fillColor=none;" parent="1" vertex="1">
          <mxGeometry x="-30" y="660" width="80" height="40" as="geometry" />
        </mxCell>
        <mxCell id="pUQb4mrd04jTsInn6m61-101" value="&lt;font size=&quot;1&quot;&gt;&lt;b style=&quot;font-size: 16px&quot;&gt;false&lt;/b&gt;&lt;/font&gt;" style="rounded=0;whiteSpace=wrap;html=1;strokeWidth=2;strokeColor=none;gradientColor=#ffffff;fillColor=none;" parent="1" vertex="1">
          <mxGeometry x="-80" y="610" width="40" height="40" as="geometry" />
        </mxCell>
        <mxCell id="pUQb4mrd04jTsInn6m61-121" style="edgeStyle=orthogonalEdgeStyle;rounded=0;orthogonalLoop=1;jettySize=auto;html=1;exitX=1;exitY=0.5;exitDx=0;exitDy=0;entryX=0;entryY=0.5;entryDx=0;entryDy=0;" parent="1" source="pUQb4mrd04jTsInn6m61-106" target="pUQb4mrd04jTsInn6m61-7" edge="1">
          <mxGeometry relative="1" as="geometry" />
        </mxCell>
        <mxCell id="pUQb4mrd04jTsInn6m61-106" value="发起查询" style="rounded=0;whiteSpace=wrap;html=1;strokeColor=default;strokeWidth=2;fillColor=none;gradientColor=#ffffff;" parent="1" vertex="1">
          <mxGeometry x="280" y="500" width="120" height="50" as="geometry" />
        </mxCell>
        <mxCell id="pUQb4mrd04jTsInn6m61-139" style="edgeStyle=orthogonalEdgeStyle;rounded=0;orthogonalLoop=1;jettySize=auto;html=1;exitX=0.5;exitY=1;exitDx=0;exitDy=0;entryX=0.5;entryY=0;entryDx=0;entryDy=0;" parent="1" source="pUQb4mrd04jTsInn6m61-111" target="pUQb4mrd04jTsInn6m61-47" edge="1">
          <mxGeometry relative="1" as="geometry" />
        </mxCell>
        <mxCell id="pUQb4mrd04jTsInn6m61-111" value="红票" style="rounded=0;whiteSpace=wrap;html=1;strokeWidth=2;" parent="1" vertex="1">
          <mxGeometry x="414" y="120" width="120" height="40" as="geometry" />
        </mxCell>
        <mxCell id="pUQb4mrd04jTsInn6m61-140" style="edgeStyle=orthogonalEdgeStyle;rounded=0;orthogonalLoop=1;jettySize=auto;html=1;" parent="1" source="pUQb4mrd04jTsInn6m61-112" edge="1">
          <mxGeometry relative="1" as="geometry">
            <mxPoint x="600" y="240" as="targetPoint" />
            <Array as="points">
              <mxPoint x="750" y="200" />
              <mxPoint x="600" y="200" />
            </Array>
          </mxGeometry>
        </mxCell>
        <mxCell id="pUQb4mrd04jTsInn6m61-112" value="蓝票" style="rounded=0;whiteSpace=wrap;html=1;strokeWidth=2;" parent="1" vertex="1">
          <mxGeometry x="690" y="120" width="120" height="40" as="geometry" />
        </mxCell>
        <mxCell id="pUQb4mrd04jTsInn6m61-124" style="edgeStyle=orthogonalEdgeStyle;rounded=0;orthogonalLoop=1;jettySize=auto;html=1;exitX=1;exitY=0.5;exitDx=0;exitDy=0;entryX=0;entryY=0.5;entryDx=0;entryDy=0;" parent="1" source="pUQb4mrd04jTsInn6m61-122" target="pUQb4mrd04jTsInn6m61-94" edge="1">
          <mxGeometry relative="1" as="geometry" />
        </mxCell>
        <mxCell id="pUQb4mrd04jTsInn6m61-125" style="edgeStyle=orthogonalEdgeStyle;rounded=0;orthogonalLoop=1;jettySize=auto;html=1;exitX=1;exitY=0.5;exitDx=0;exitDy=0;entryX=0;entryY=0.5;entryDx=0;entryDy=0;" parent="1" source="pUQb4mrd04jTsInn6m61-122" edge="1">
          <mxGeometry relative="1" as="geometry">
            <Array as="points">
              <mxPoint x="-260" y="-80" />
              <mxPoint x="-260" y="40" />
            </Array>
            <mxPoint x="-160" y="40" as="targetPoint" />
          </mxGeometry>
        </mxCell>
        <mxCell id="Sm_hAgKdC-RfSFga7j6l-3" style="edgeStyle=orthogonalEdgeStyle;rounded=0;orthogonalLoop=1;jettySize=auto;html=1;entryX=0;entryY=0.5;entryDx=0;entryDy=0;" edge="1" parent="1" source="pUQb4mrd04jTsInn6m61-122" target="Sm_hAgKdC-RfSFga7j6l-2">
          <mxGeometry relative="1" as="geometry" />
        </mxCell>
        <mxCell id="pUQb4mrd04jTsInn6m61-122" value="订单列表" style="rounded=0;whiteSpace=wrap;html=1;strokeColor=default;strokeWidth=2;fillColor=none;gradientColor=#ffffff;" parent="1" vertex="1">
          <mxGeometry x="-480" y="-110" width="120" height="60" as="geometry" />
        </mxCell>
        <mxCell id="pUQb4mrd04jTsInn6m61-126" value="开票记录" style="rounded=0;whiteSpace=wrap;html=1;strokeColor=default;strokeWidth=2;fillColor=none;gradientColor=#ffffff;" parent="1" vertex="1">
          <mxGeometry x="-460" y="670" width="120" height="60" as="geometry" />
        </mxCell>
        <mxCell id="Sm_hAgKdC-RfSFga7j6l-1" value="筛选条件" style="rounded=0;whiteSpace=wrap;html=1;strokeWidth=2;" vertex="1" parent="1">
          <mxGeometry x="-160" y="20" width="120" height="40" as="geometry" />
        </mxCell>
        <mxCell id="Sm_hAgKdC-RfSFga7j6l-2" value="筛选订单" style="rounded=0;whiteSpace=wrap;html=1;strokeWidth=2;" vertex="1" parent="1">
          <mxGeometry x="-160" y="120" width="120" height="40" as="geometry" />
        </mxCell>
        <mxCell id="Sm_hAgKdC-RfSFga7j6l-5" value="&lt;span style=&quot;color: rgb(0 , 0 , 0) ; font-family: &amp;#34;helvetica&amp;#34; ; font-size: 12px ; font-style: normal ; font-weight: 400 ; letter-spacing: normal ; text-align: center ; text-indent: 0px ; text-transform: none ; word-spacing: 0px ; background-color: rgb(248 , 249 , 250) ; display: inline ; float: none&quot;&gt;是否停止自动推送&lt;/span&gt;" style="rhombus;whiteSpace=wrap;html=1;" vertex="1" parent="1">
          <mxGeometry x="190" y="-295" width="120" height="110" as="geometry" />
        </mxCell>
        <mxCell id="Sm_hAgKdC-RfSFga7j6l-15" style="edgeStyle=orthogonalEdgeStyle;rounded=0;orthogonalLoop=1;jettySize=auto;html=1;entryX=0.5;entryY=0;entryDx=0;entryDy=0;" edge="1" parent="1" source="Sm_hAgKdC-RfSFga7j6l-13" target="pUQb4mrd04jTsInn6m61-112">
          <mxGeometry relative="1" as="geometry" />
        </mxCell>
        <mxCell id="Sm_hAgKdC-RfSFga7j6l-16" style="edgeStyle=orthogonalEdgeStyle;rounded=0;orthogonalLoop=1;jettySize=auto;html=1;entryX=0.5;entryY=0;entryDx=0;entryDy=0;" edge="1" parent="1" source="Sm_hAgKdC-RfSFga7j6l-13" target="pUQb4mrd04jTsInn6m61-111">
          <mxGeometry relative="1" as="geometry" />
        </mxCell>
        <mxCell id="Sm_hAgKdC-RfSFga7j6l-13" value="手动推送" style="rounded=0;whiteSpace=wrap;html=1;strokeWidth=2;" vertex="1" parent="1">
          <mxGeometry x="200" y="20" width="120" height="40" as="geometry" />
        </mxCell>
      </root>
    </mxGraphModel>
  </diagram>
</mxfile>
